<?xml version="1.0" standalone="no"?>
<!DOCTYPE svg PUBLIC "-//W3C//DTD SVG 20010904//EN"
 "http://www.w3.org/TR/2001/REC-SVG-20010904/DTD/svg10.dtd">
<svg version="1.0" xmlns="http://www.w3.org/2000/svg"
 width="900.000000pt" height="600.000000pt" viewBox="0 0 900.000000 600.000000"
 preserveAspectRatio="xMidYMid meet">
<metadata>
Created by potrace 1.10, written by Peter Selinger 2001-2011
</metadata>
<g transform="translate(0.000000,600.000000) scale(0.100000,-0.100000)"
fill="#000000" stroke="none">
<path d="M0 3000 l0 -3000 4500 0 4500 0 0 3000 0 3000 -4500 0 -4500 0 0
-3000z m4795 1684 c79 -15 161 -35 220 -55 17 -6 39 -13 50 -16 66 -16 273
-123 385 -198 173 -116 407 -361 506 -530 46 -79 51 -88 74 -135 91 -187 121
-281 160 -507 5 -32 10 -134 10 -228 0 -239 -24 -368 -117 -630 -69 -195 -227
-438 -393 -606 -165 -167 -314 -268 -535 -363 -16 -7 -47 -21 -68 -30 -21 -9
-44 -16 -52 -16 -8 0 -29 -6 -47 -14 -38 -16 -150 -41 -258 -56 -338 -49 -681
6 -985 156 -49 25 -103 54 -120 64 -16 11 -37 23 -45 27 -8 4 -60 40 -115 82
-259 196 -468 473 -580 771 -9 25 -23 60 -31 78 -8 18 -14 40 -14 48 0 9 -6
37 -14 63 -8 25 -22 85 -31 133 -22 120 -22 450 0 562 22 109 44 194 61 234 8
18 14 40 14 48 0 9 6 28 13 42 8 15 21 43 30 62 78 177 163 310 293 461 129
150 320 305 464 377 25 13 52 27 60 31 21 12 78 36 125 54 22 8 58 21 80 30
114 42 240 69 365 78 135 10 401 1 495 -17z"/>
<path d="M4220 4443 c-107 -23 -236 -62 -295 -89 -221 -97 -334 -173 -491
-329 -110 -110 -210 -239 -265 -347 -60 -116 -105 -230 -129 -323 -48 -189
-51 -520 -5 -675 7 -25 15 -56 18 -70 18 -91 105 -272 165 -340 78 -90 338
-199 602 -254 494 -101 1081 -90 1500 30 52 15 74 23 175 61 63 24 166 77 177
90 6 7 15 13 20 13 5 0 25 15 44 33 45 41 95 127 148 252 73 172 109 431 87
637 -35 336 -173 627 -414 874 -140 143 -249 225 -400 300 -153 76 -216 98
-407 138 -98 21 -434 21 -530 -1z m292 -939 c3 -27 7 -85 7 -129 1 -44 6 -109
11 -145 6 -36 15 -123 20 -195 14 -173 33 -332 42 -340 4 -4 30 42 58 101 53
111 297 601 315 632 45 78 81 94 53 25 -20 -50 -38 -101 -48 -138 -9 -33 -27
-85 -43 -125 -5 -14 -13 -38 -17 -55 -8 -29 -17 -55 -45 -135 -7 -19 -27 -82
-45 -140 -18 -58 -38 -121 -45 -140 -18 -50 -35 -105 -35 -113 0 -4 6 -7 13
-7 11 1 56 39 177 154 30 28 105 94 165 146 61 52 116 101 124 108 31 30 171
132 180 132 18 0 13 -15 -16 -47 -55 -61 -79 -89 -156 -181 -43 -52 -89 -106
-102 -120 -171 -196 -252 -298 -244 -307 6 -6 28 -3 62 7 28 9 79 23 112 33
33 9 74 21 90 26 17 6 50 16 75 24 25 7 70 20 100 29 30 9 73 21 95 27 22 6
44 14 50 20 12 12 65 12 65 0 0 -6 -11 -16 -25 -23 -13 -7 -118 -70 -232 -139
-115 -69 -215 -129 -223 -132 -8 -4 -28 -16 -45 -27 -16 -11 -37 -23 -45 -27
-8 -3 -31 -17 -51 -29 -70 -44 -212 -115 -267 -134 -76 -27 -254 -28 -327 -2
-61 22 -160 70 -240 117 -33 19 -69 39 -80 45 -11 6 -33 19 -50 30 -16 11 -39
24 -50 30 -11 6 -33 19 -50 30 -16 11 -37 23 -45 27 -8 4 -33 19 -55 34 -22
15 -56 35 -75 46 -19 10 -53 30 -75 44 -22 14 -47 29 -55 32 -8 4 -28 16 -45
27 -16 11 -40 24 -52 30 -13 5 -23 14 -23 20 0 14 44 12 82 -4 18 -7 59 -21
91 -30 99 -28 171 -49 212 -62 22 -6 69 -20 105 -29 36 -9 83 -23 105 -31 46
-16 88 -18 83 -5 -4 12 -66 86 -302 361 -108 127 -206 238 -220 249 -18 15
-22 41 -5 41 11 0 147 -101 210 -154 19 -17 57 -49 84 -71 44 -35 88 -74 160
-138 60 -55 183 -157 189 -157 11 0 6 48 -8 82 -15 37 -28 75 -57 168 -12 36
-27 81 -34 100 -25 67 -165 501 -165 510 0 25 21 5 54 -51 20 -33 36 -63 36
-66 0 -3 47 -100 104 -216 56 -117 127 -262 157 -324 68 -141 85 -147 94 -35
3 42 12 133 20 202 34 296 45 400 50 473 3 43 8 83 11 88 13 22 29 0 36 -47z"/>
</g>
</svg>
