<?xml version="1.0" standalone="no"?>
<!DOCTYPE svg PUBLIC "-//W3C//DTD SVG 20010904//EN"
 "http://www.w3.org/TR/2001/REC-SVG-20010904/DTD/svg10.dtd">
<svg version="1.0" xmlns="http://www.w3.org/2000/svg"
 width="450.000000pt" height="300.000000pt" viewBox="0 0 450.000000 300.000000"
 preserveAspectRatio="xMidYMid meet">
<metadata>
Created by potrace 1.10, written by Peter Selinger 2001-2011
</metadata>
<g transform="translate(0.000000,300.000000) scale(0.100000,-0.100000)"
fill="#000000" stroke="none">
<path d="M2068 2375 c-297 -65 -550 -288 -653 -577 -43 -122 -59 -227 -52
-336 23 -341 243 -653 552 -781 121 -51 195 -65 340 -64 161 1 249 22 392 94
181 90 338 264 419 464 56 140 66 200 62 365 -4 130 -7 154 -36 236 -54 160
-162 315 -292 421 -95 77 -245 149 -361 173 -108 23 -281 25 -371 5z m322 -26
c366 -58 661 -365 711 -737 32 -243 -60 -515 -240 -706 -97 -102 -225 -181
-366 -226 -107 -34 -319 -40 -440 -11 -363 86 -637 412 -662 788 -28 420 291
823 705 893 70 11 218 11 292 -1z"/>
<path d="M2145 2231 c-149 -24 -290 -91 -394 -188 -167 -154 -244 -325 -243
-538 1 -152 50 -314 114 -371 54 -50 194 -103 348 -131 72 -14 145 -18 305
-17 189 0 221 3 321 26 120 28 221 70 270 111 40 34 91 139 109 224 94 443
-234 865 -690 887 -49 3 -113 1 -140 -3z m274 -47 c185 -45 362 -179 458 -346
93 -161 110 -414 40 -583 -35 -86 -63 -114 -151 -155 -131 -61 -272 -85 -496
-85 -238 1 -381 24 -534 87 -88 36 -112 58 -146 133 -41 89 -53 166 -48 312 4
111 8 137 33 198 41 102 88 170 174 255 135 133 299 199 495 199 68 1 134 -5
175 -15z"/>
<path d="M2230 1851 c-5 -11 -19 -102 -30 -203 -12 -101 -22 -187 -24 -193 -2
-5 -35 56 -74 136 -78 163 -116 216 -138 198 -21 -17 -18 -29 41 -214 30 -93
53 -170 52 -171 -1 -2 -32 22 -67 52 -86 74 -169 138 -199 154 -21 11 -26 10
-37 -5 -18 -24 -11 -36 112 -178 57 -66 102 -122 100 -124 -2 -3 -58 12 -125
31 -136 40 -159 43 -168 19 -9 -24 34 -58 193 -152 76 -45 146 -86 154 -92
115 -70 224 -95 306 -69 66 21 446 243 479 281 22 23 13 49 -17 49 -13 0 -75
-16 -138 -35 -63 -19 -118 -35 -123 -35 -6 0 24 37 154 191 64 75 75 97 56
116 -13 14 -20 12 -64 -17 -39 -27 -159 -129 -222 -188 -7 -7 -15 -11 -17 -9
-2 1 24 87 58 190 57 171 61 189 46 203 -15 15 -18 13 -44 -16 -16 -17 -61
-95 -101 -173 -41 -82 -73 -136 -76 -127 -3 8 -13 93 -21 189 -16 166 -26 211
-46 211 -5 0 -14 -9 -20 -19z m49 -326 c6 -66 12 -135 13 -152 2 -31 18 -48
18 -19 0 17 183 385 205 411 17 20 17 20 10 0 -18 -51 -155 -469 -155 -472 0
-3 44 36 98 85 107 99 253 221 264 222 4 0 -62 -81 -147 -180 -85 -99 -155
-182 -155 -185 0 -3 8 -2 18 3 19 10 348 112 360 112 4 0 -15 -13 -43 -29 -27
-15 -113 -65 -190 -111 -236 -139 -249 -145 -329 -145 -56 0 -83 6 -126 26
-71 34 -451 263 -425 256 57 -15 358 -108 366 -112 5 -4 9 -2 9 4 0 5 -4 11
-9 13 -4 2 -64 68 -133 148 -69 80 -135 154 -147 164 -39 35 -22 38 25 4 54
-38 284 -233 300 -254 6 -8 13 -14 16 -14 2 0 -31 105 -74 232 -43 128 -77
237 -75 242 3 10 196 -375 213 -425 9 -26 7 -41 38 281 23 229 28 247 37 120
4 -58 12 -159 18 -225z"/>
</g>
</svg>
